# xmcd CD database file
#
# Track frame offsets:
#	150
#	19698
#	49691
#	72616
#	94838
#	112523
#	133701
#	149870
#	176317
#	198541
#	220018
#	249028
#	268644
#	288637
#	319573
#
# Disc length: 4582 seconds
#
# Revision: 0
# Processed by: cddbd v1.5PL3 Copyright (c) Steve Scherf et al.
# Submitted via: CDex 1.51
#
DISCID=db11e40f
DTITLE=Various Artist - Cafe de Bangkok
DYEAR=2003
DGENRE=New Age
TTITLE0=Little Fluffy Clouds
TTITLE1=Blinded By The Light
TTITLE2=Trembling Heart
TTITLE3=Is You Is Or Is You Ain't My Baby
TTITLE4=Living It Up
TTITLE5=Airbook Sarcasm
TTITLE6=Neptune
TTITLE7=This Is Love
TTITLE8=Papua NNew Guinea
TTITLE9=Axis Of Ignorance
TTITLE10=Giving Up The Ghost
TTITLE11=Snapshot
TTITLE12=Loving You Hating Me
TTITLE13=Golden Solitude
TTITLE14=Fly
EXTD=YEAR: 2003
EXTT0=
EXTT1=
EXTT2=
EXTT3=
EXTT4=
EXTT5=
EXTT6=
EXTT7=
EXTT8=
EXTT9=
EXTT10=
EXTT11=
EXTT12=
EXTT13=
EXTT14=
PLAYORDER=
